<svg width="19" height="24" viewBox="0 0 19 24" fill="none" xmlns="http://www.w3.org/2000/svg">
<path fill-rule="evenodd" clip-rule="evenodd" d="M9.15773 0.65901C9.57969 0.237053 10.152 0 10.7487 0C11.3455 0 11.9178 0.237053 12.3397 0.65901C12.6191 0.938397 12.8174 1.2837 12.9195 1.65836C13.181 1.55471 13.462 1.5 13.7487 1.5C14.3455 1.5 14.9178 1.73705 15.3397 2.15901C15.7617 2.58097 15.9987 3.15326 15.9987 3.75V4.62868C16.2374 4.5443 16.4908 4.5 16.7487 4.5C17.3455 4.5 17.9178 4.73705 18.3397 5.15901C18.7617 5.58097 18.9987 6.15326 18.9987 6.75V15C18.9987 17.8843 18.2111 20.1476 16.7848 21.6967C15.3532 23.2517 13.3575 24 11.1237 24C8.94671 24 7.33398 23.5087 6.1243 22.6498C4.9178 21.7932 4.1894 20.6252 3.68204 19.415C3.67756 19.4043 3.67334 19.3935 3.66936 19.3826L1.20118 12.6346C1.20106 12.6343 1.20093 12.6339 1.2008 12.6336C1.00881 12.1128 0.932534 11.5484 1.06515 11.011C1.2028 10.4532 1.55212 9.98513 2.09066 9.67919C2.0907 9.67916 2.09075 9.67914 2.09079 9.67911C3.13683 9.08475 4.58518 9.35759 5.20194 10.5294C5.21255 10.5496 5.22223 10.5702 5.23096 10.5913L5.49872 11.2364V4.5C5.49872 3.90326 5.73577 3.33097 6.15773 2.90901C6.57969 2.48705 7.15198 2.25 7.74872 2.25C8.00668 2.25 8.26007 2.2943 8.49872 2.37868V2.25C8.49872 1.65326 8.73577 1.08097 9.15773 0.65901ZM9.99872 11.2969C9.99872 11.7111 9.66294 12.0469 9.24872 12.0469C8.83451 12.0469 8.49872 11.7111 8.49872 11.2969V4.5C8.49872 4.30109 8.4197 4.11032 8.27905 3.96967C8.1384 3.82902 7.94763 3.75 7.74872 3.75C7.54981 3.75 7.35904 3.82902 7.21839 3.96967C7.07774 4.11032 6.99872 4.30109 6.99872 4.5V15C6.99872 15.3577 6.74611 15.6656 6.3953 15.7355C6.04449 15.8054 5.69313 15.6179 5.55601 15.2875L3.86128 11.2042C3.68084 10.8963 3.23056 10.7567 2.83179 10.9833L2.83165 10.9834C2.64323 11.0904 2.5583 11.2211 2.52147 11.3704C2.47968 11.5397 2.48853 11.7904 2.60845 12.1154L2.60918 12.1174L5.07201 18.8508C5.51494 19.9024 6.09769 20.7913 6.99271 21.4268C7.88901 22.0632 9.17573 22.5 11.1237 22.5C13.0149 22.5 14.5818 21.8749 15.6813 20.6807C16.7863 19.4805 17.4987 17.6188 17.4987 15V6.75C17.4987 6.55109 17.4197 6.36032 17.2791 6.21967C17.1384 6.07902 16.9476 6 16.7487 6C16.5498 6 16.359 6.07902 16.2184 6.21967C16.0777 6.36032 15.9987 6.55109 15.9987 6.75V12C15.9987 12.4142 15.6629 12.75 15.2487 12.75C14.8345 12.75 14.4987 12.4142 14.4987 12V3.75C14.4987 3.55109 14.4197 3.36032 14.2791 3.21967C14.1384 3.07902 13.9476 3 13.7487 3C13.5498 3 13.359 3.07902 13.2184 3.21967C13.0777 3.36032 12.9987 3.55109 12.9987 3.75V11.25C12.9987 11.6642 12.6629 12 12.2487 12C11.8345 12 11.4987 11.6642 11.4987 11.25V2.25C11.4987 2.05109 11.4197 1.86032 11.2791 1.71967C11.1384 1.57902 10.9476 1.5 10.7487 1.5C10.5498 1.5 10.359 1.57902 10.2184 1.71967C10.0777 1.86032 9.99872 2.05109 9.99872 2.25V11.2969Z" fill="#373737"/>
</svg>
